<svg xmlns="http://www.w3.org/2000/svg" version="1.1" xmlns:xlink="http://www.w3.org/1999/xlink" width="512" height="512" x="0" y="0" viewBox="0 0 491.5 491.5" style="enable-background:new 0 0 512 512" xml:space="preserve" class=""><g><path d="M121.3 214.6c-17.2 0-31.2 14-31.2 31.2s14 31.2 31.2 31.2 31.2-14 31.2-31.2-13.9-31.2-31.2-31.2zM370.2 214.6c-17.2 0-31.2 14-31.2 31.2s14 31.2 31.2 31.2 31.2-14 31.2-31.2-14-31.2-31.2-31.2z" fill="#000000" opacity="1" data-original="#000000" data-darkreader-inline-fill="" style="--darkreader-inline-fill: #000000;" class=""></path><path d="M245.8 35.5c-115.9 0-210.2 94.3-210.2 210.2s94.3 210.2 210.2 210.2C361.7 456 456 361.7 456 245.8c0-116-94.3-210.3-210.2-210.3zM121.3 286.6c-22.5 0-40.8-18.3-40.8-40.8S98.8 205 121.3 205s40.8 18.3 40.8 40.8-18.3 40.8-40.8 40.8zm124.5 0c-22.5 0-40.8-18.3-40.8-40.8s18.3-40.8 40.8-40.8 40.8 18.3 40.8 40.8-18.3 40.8-40.8 40.8zm124.4 0c-22.5 0-40.8-18.3-40.8-40.8s18.3-40.8 40.8-40.8 40.8 18.3 40.8 40.8-18.3 40.8-40.8 40.8z" fill="#000000" opacity="1" data-original="#000000" data-darkreader-inline-fill="" style="--darkreader-inline-fill: #000000;" class=""></path><path d="M245.8 214.6c-17.2 0-31.2 14-31.2 31.2s14 31.2 31.2 31.2 31.2-14 31.2-31.2-14-31.2-31.2-31.2z" fill="#000000" opacity="1" data-original="#000000" data-darkreader-inline-fill="" style="--darkreader-inline-fill: #000000;" class=""></path></g></svg>